<svg t="1577687439768" class="icon" viewBox="0 0 1024 1024" version="1.1" xmlns="http://www.w3.org/2000/svg" p-id="5402" width="200" height="200"><path d="M983.726 14.994 603.636 14.994l0 115.244c0 0 148.478 0 209.486 0-39.998 38.474-71.684 65.584-129.936 121.592-68.554-48.744-152.168-77.722-242.604-77.722-231.09 0-419.126 187.384-419.126 417.754 0 230.358 188.036 417.754 419.126 417.754 231.078 0 419.126-187.396 419.126-417.754 0-98.964-34.88-189.89-92.798-261.536 58.93-58.002 87.334-84.6 125.282-121.946 0 57.514 0 193.178 0 193.178L1003 401.558 1003 14.994 983.726 14.994zM440.582 894.372c-167.342 0-303.504-135.7-303.504-302.51s136.162-302.51 303.504-302.51c167.33 0 303.504 135.7 303.504 302.51S607.91 894.372 440.582 894.372z" p-id="5403"></path></svg>
