<svg t="1577699163848" class="icon" viewBox="0 0 1024 1024" version="1.1" xmlns="http://www.w3.org/2000/svg" p-id="32938" width="200" height="200"><path d="M914.773333 143.36H109.226667C47.786667 143.36 0 191.146667 0 252.586667v518.826666c0 61.44 47.786667 109.226667 109.226667 109.226667h805.546666c61.44 0 109.226667-47.786667 109.226667-109.226667V252.586667c0-61.44-47.786667-109.226667-109.226667-109.226667z m20.48 628.053333c0 13.653333-10.24 23.893333-23.893333 23.893334H109.226667c-13.653333 0-23.893333-10.24-23.893334-23.893334V413.013333h706.56c23.893333 0 44.373333-20.48 44.373334-44.373333 0-23.893333-20.48-44.373333-44.373334-44.373333H88.746667V252.586667c0-13.653333 10.24-23.893333 23.893333-23.893334h805.546667c13.653333 0 23.893333 10.24 23.893333 23.893334v518.826666z"  p-id="32939"></path><path d="M300.373333 638.293333H204.8c-23.893333 0-44.373333 20.48-44.373333 44.373334 0 23.893333 20.48 44.373333 44.373333 44.373333h95.573333c23.893333 0 44.373333-20.48 44.373334-44.373333 0-27.306667-20.48-44.373333-44.373334-44.373334zM501.76 638.293333h-51.2c-23.893333 0-44.373333 20.48-44.373333 44.373334 0 23.893333 20.48 44.373333 44.373333 44.373333h51.2c23.893333 0 44.373333-20.48 44.373333-44.373333 0-27.306667-20.48-44.373333-44.373333-44.373334z"  p-id="32940"></path></svg>
