<svg t="1577700233991" class="icon" viewBox="0 0 1024 1024" version="1.1" xmlns="http://www.w3.org/2000/svg" p-id="54955" width="200" height="200"><path d="M213.333333 512c-25.6 0-42.666667-17.066667-42.666666-42.666667 0-166.4 132.266667-298.666667 298.666666-298.666666 128 0 243.2 85.333333 285.866667 209.066666 8.533333 21.333333-4.266667 46.933333-25.6 55.466667-21.333333 8.533333-46.933333-4.266667-55.466667-25.6C644.266667 315.733333 563.2 256 469.333333 256c-119.466667 0-213.333333 93.866667-213.333333 213.333333 0 25.6-17.066667 42.666667-42.666667 42.666667z"  p-id="54956"></path><path d="M768 853.333333c-25.6 0-42.666667-17.066667-42.666667-42.666666s17.066667-42.666667 42.666667-42.666667c93.866667 0 170.666667-76.8 170.666667-170.666667s-76.8-170.666667-170.666667-170.666666c-12.8 0-29.866667 0-42.666667 4.266666-21.333333 4.266667-46.933333-8.533333-51.2-29.866666-4.266667-21.333333 8.533333-46.933333 29.866667-51.2 21.333333-4.266667 42.666667-8.533333 64-8.533334 140.8 0 256 115.2 256 256s-115.2 256-256 256z"  p-id="54957"></path><path d="M682.666667 853.333333H213.333333c-25.6 0-42.666667-17.066667-42.666666-42.666666s17.066667-42.666667 42.666666-42.666667h469.333334c25.6 0 42.666667 17.066667 42.666666 42.666667s-17.066667 42.666667-42.666666 42.666666z"  p-id="54958"></path><path d="M768 853.333333h-85.333333c-25.6 0-42.666667-17.066667-42.666667-42.666666s17.066667-42.666667 42.666667-42.666667h85.333333c25.6 0 42.666667 17.066667 42.666667 42.666667s-17.066667 42.666667-42.666667 42.666666zM213.333333 853.333333c-119.466667 0-213.333333-93.866667-213.333333-213.333333s93.866667-213.333333 213.333333-213.333333c25.6 0 42.666667 17.066667 42.666667 42.666666s-17.066667 42.666667-42.666667 42.666667c-72.533333 0-128 55.466667-128 128s55.466667 128 128 128c25.6 0 42.666667 17.066667 42.666667 42.666667s-17.066667 42.666667-42.666667 42.666666z"  p-id="54959"></path></svg>
