<svg t="1577852600969" class="icon" viewBox="0 0 1024 1024" version="1.1" xmlns="http://www.w3.org/2000/svg" p-id="2676" width="200" height="200"><path d="M70.4 394.2l128.2-214.3C205 169.1 216.3 163 228 163h568.4c13.9 0 25.7 7.8 31.1 19.3l127.7 214.4c8.3 13.7 5.6 31.1-4.9 41.8L536.6 852.3c-13.5 13.7-35.3 13.7-48.7 0l-0.5-0.7-413.3-413c-12.2-12.1-13.2-30.7-3.7-44.4z m80.8-0.7h172.3l-87.4-142.9-84.9 142.9z m637-142.9l-87.4 142.9h172.8l-85.4-142.9z m68.2 184.3H678.5L575.5 716l280.9-281.1zM449 716L346 434.9H168.1L449 716z m302.2-483.7H561.3l101.8 144.3 88.1-144.3z m-288.3 0H273.1l88.3 144.3 101.5-144.3z m-62.6 161.2h223.9l-112.1-160-111.8 160z m234.4 41.4h-245l122.4 333.3 122.6-333.3z" p-id="2677"></path></svg>
