<svg t="1577687151880" class="icon" viewBox="0 0 1024 1024" version="1.1" xmlns="http://www.w3.org/2000/svg" p-id="3940" width="200" height="200"><path d="M680.93952 452.0704l39.26016-110.6688-351.232-135.07584-41.20064 108.07296 353.17248 137.67168z m-377.8048-128.34816l55.70048-148.24448L237.7728 128.8704 180.13696 274.51904l122.99776 49.2032z m-75.776-227.51744l-36.89984-12.94336-74.47552 182.54848 38.84544 15.5392L227.35872 96.2048z m643.36896 319.67744l-7.31648 19.57376-19.85024-6.98368-16.93184 49.36192 18.65728 6.1184-7.93088 21.2224 37.6576 13.17888 32.99328-88.73984-37.27872-13.73184z m-78.3616-20.11648l-25.54368 68.1472 47.0528 17.88416 25.16992-67.60448-46.67904-18.42688z m-61.44-35.84l-32.5888 86.93248 53.31968 19.45088 32.20992-86.39488-52.9408-19.98848z m-221.3888 196.75136v-143.3088H369.664v143.30368h34.39616l-275.1488 384.06656h33.24416l260.8384-364.08832v364.08832h33.24928v-363.1872l260.18816 363.1872h33.24416l-275.1488-384.06656h35.01056z m-67.64032-43.56608a26.368 26.368 0 1 1 0-52.736 26.368 26.368 0 0 1 0 52.736z"  p-id="3941"></path></svg>
