<svg t="1577851970409" class="icon" viewBox="0 0 1024 1024" version="1.1" xmlns="http://www.w3.org/2000/svg" p-id="1122" width="200" height="200"><path d="M459.1 617.8c14.6-14.6 14.6-38.3 0-52.9-14.6-14.6-38.3-14.6-52.9 0L258.4 712.7V591.4c0-20.7-16.8-37.4-37.4-37.4-20.7 0-37.4 16.8-37.4 37.4V803c0 9.9 3.9 19.4 11 26.5 7 7 16.5 11 26.5 11h211.7c20.7 0 37.4-16.8 37.4-37.4 0-20.7-16.8-37.4-37.4-37.4H311.3l147.8-147.9z m105.8-211.6c-14.6 14.6-14.6 38.3 0 52.9 14.6 14.6 38.3 14.6 52.9 0l147.8-147.8v121.3c0 20.7 16.8 37.4 37.4 37.4 20.7 0 37.4-16.8 37.4-37.4V221c0-9.9-3.9-19.4-11-26.5-7-7-16.5-11-26.5-11H591.4c-20.7 0-37.4 16.8-37.4 37.4 0 20.7 16.8 37.4 37.4 37.4h121.3L564.9 406.2z" p-id="1123"></path></svg>
