<svg t="1577698569134" class="icon" viewBox="0 0 1024 1024" version="1.1" xmlns="http://www.w3.org/2000/svg" p-id="24260" width="200" height="200"><path d="M512 721.7c-29.5 0-53.3-23.9-53.3-53.3v-42.7c0-76 60.3-130.6 118.5-183.4 43.8-39.6 89-80.6 89-115.3 0-85.1-69.2-154.2-154.2-154.2-85.1 0-154.2 69.2-154.2 154.2 0 29.5-23.9 53.3-53.3 53.3-29.5 0-53.3-23.9-53.3-53.3 0-143.9 117-260.9 260.9-260.9C656 66.1 773 183.1 773 327c0 82-65.9 141.7-124.1 194.3-39.1 35.4-83.5 75.6-83.5 104.3v42.7c-0.1 29.5-23.9 53.4-53.4 53.4z"  p-id="24261"></path><path d="M512 882.3m-64 0a64 64 0 1 0 128 0 64 64 0 1 0-128 0Z"  p-id="24262"></path></svg>
