<svg t="1577698730210" class="icon" viewBox="0 0 1024 1024" version="1.1" xmlns="http://www.w3.org/2000/svg" p-id="27463" width="200" height="200"><path d="M163.84 602.39872V130.70336l11.32544-5.65248c6.43072-3.21536 18.06336-7.5776 34.89792-11.79648C237.30176 106.45504 269.66016 102.4 307.2 102.4c36.10624 0 66.06848 6.06208 171.17184 31.29344 10.91584 2.60096 19.29216 4.608 27.42272 6.49216C574.5664 156.2624 619.25376 163.84 655.36 163.84c42.5984 0 84.76672-7.33184 124.5184-19.57888 13.9264-4.28032 26.54208-8.86784 37.5808-13.43488 6.49216-2.6624 10.91584-4.7104 13.06624-5.77536L860.16 110.22336V568.7296l-15.2576 4.03456c-2.70336 0.7168-7.61856 1.92512-14.45888 3.44064-11.264 2.51904-23.87968 5.0176-37.5808 7.3728-46.40768 7.92576-93.5936 12.04224-138.28096 10.32192-38.5024-1.47456-81.5104-9.56416-169.28768-29.63456l-6.53312-1.49504C377.93792 539.68896 340.02944 532.48 307.2 532.48c-32.5632 0-60.17024 6.90176-83.00544 18.30912a130.60096 130.60096 0 0 0-19.90656 12.16512 60.8256 60.8256 0 0 0-5.48864 4.5056L163.84 602.37824z" p-id="27464"></path><path d="M163.84 921.6h40.96V552.96H163.84z" p-id="27465"></path></svg>
