<svg t="1577853573247" class="icon" viewBox="0 0 1024 1024" version="1.1" xmlns="http://www.w3.org/2000/svg" p-id="9306" width="200" height="200"><path d="M883.3 562l-146 228.6c-0.8 0.3-1.9 0.5-3.3 0.5H150.4l45.8-71.7 100.3-157c0.8-0.3 1.9-0.5 3.3-0.5h583.5m-529.4-401H138.5c-41.4 0-75 33.6-75 75v552.2c0 41.4 33.6 75 75 75H734c24.2 0 46.8-10.4 60.2-27.8l158.9-248.7c31.9-41.4-2.5-96.7-60.2-96.7h-90.2V350.2c0-41.4-33.6-75-75-75H428.9c-1.6 0-3-1.3-3-3v-39.3c0-39.7-32.2-72-72-72z m0 72l-0.3 46.6c0 47 21 67.7 69.7 67.7h304.2c1.6 0 3 1.3 3 3V490H299.8c-24.2 0-46.8 10.4-60.2 27.8L135.5 680.7V235.9c0-1.6 1.3-3 3-3h215.4z" p-id="9307"></path></svg>
