<svg t="1577687425227" class="icon" viewBox="0 0 1024 1024" version="1.1" xmlns="http://www.w3.org/2000/svg" p-id="5269" width="200" height="200"><path d="M900.29 126.066c-156.768-156.768-412.738-155.908-570.586 1.928-143.27 143.27-156.75 367.11-40.93 524.496-15.568 15.574-30.8 30.812-39.02 39.032-22.134-22.134-164.092-164.098-164.092-164.098L6.696 606.392c0 0 141.958 141.952 164.092 164.086-20.414 20.414-110.24 110.234-110.24 110.234l80.074 80.074c0 0 89.818-89.824 110.234-110.24C272.998 872.694 414.316 1014 414.316 1014l78.972-78.948c0 0-141.318-141.33-163.464-163.464 7.99-7.99 22.846-22.846 38.248-38.244 157.658 120.452 385.272 108.312 530.278-36.706C1056.204 538.792 1057.052 282.816 900.29 126.066zM819.912 618.214c-114.296 114.302-299.646 114.948-413.188 1.406-113.532-113.542-112.89-298.886 1.418-413.188 114.302-114.32 299.646-114.936 413.182-1.424C934.874 318.568 934.226 503.894 819.912 618.214z" p-id="5270"></path></svg>
