<svg t="1577687378051" class="icon" viewBox="0 0 1024 1024" version="1.1" xmlns="http://www.w3.org/2000/svg" p-id="5003" width="200" height="200"><path d="M961.290713 383.479783c-0.2401-139.111296-66.841184-188.345144-79.659859-211.394748 18.874531-105.377241-3.121301-153.397249-13.338891-169.764068-37.735723-13.338891-131.281367 34.561067-182.395998 68.33514-83.328053-24.396832-259.441434-22.00917-325.468945 6.309295C238.576248-10.284285 174.122726 3.014589 174.122726 3.014589s-41.670696 74.697791-11.017924 184.076699c-40.096707 51.087953-69.975823 87.209671-69.975823 183.022926a565.835765 565.835765 0 0 0 3.8416 65.493956c34.52105 181.542309 178.380992 259.868278 319.679867 273.367236-21.262193 16.153397-46.79283 46.686119-50.327637 82.16757-26.677782 17.340559-80.460192 22.98291-122.250937 9.844102-58.557732-18.501042-80.980409-134.456023-168.67028-117.915798-18.967903 3.548145-15.206336 16.006669 1.227178 26.677782 26.677782 17.340559 51.874948 38.869529 71.269696 84.968737 14.899541 35.388078 46.219258 98.574406 145.273864 98.574406 39.323051 0 66.867862-4.641934 66.867862-4.641934v115.48812c0 3.241351 2.441017 3.348062 6.069195 3.934973 7.589829 1.227178 20.381826 4.535223 27.077949 5.522301 25.543977 3.774906 63.866611 10.404335 139.618175 10.404335 105.110463 0 130.52105-11.698208 175.859941-28.345144-0.293456-35.881617 0-17.073781 0-118.48937s-13.619008-138.857857-61.065444-168.736974c137.590663-14.125886 280.516882-75.564819 306.260942-237.152147a643.561484 643.561484 0 0 0 7.429763-87.796582z" p-id="5004"></path></svg>
