<svg t="1577852090660" class="icon" viewBox="0 0 1024 1024" version="1.1" xmlns="http://www.w3.org/2000/svg" p-id="1893" width="200" height="200"><path d="M886.153846 756.184615c-3.938462 53.169231-9.846154 110.276923-19.692308 165.415385-1.969231 15.753846-19.692308 33.476923-35.446153 35.446154-106.338462 11.815385-210.707692 19.692308-317.046154 19.692308-104.369231 0-210.707692-5.907692-315.076923-19.692308-15.753846-1.969231-33.476923-17.723077-35.446154-35.446154-13.784615-86.646154-21.661538-175.261538-21.661539-263.876923s7.876923-177.230769 21.661539-263.876923c1.969231-15.753846 19.692308-31.507692 35.446154-35.446154 64.984615-7.876923 128-11.815385 191.015384-15.753846 0 0 51.2-1.969231 47.261539-51.2-3.938462-43.323077-78.769231-72.861538-78.769231-145.723077 0-59.076923 59.076923-106.338462 155.569231-106.338462 94.523077 0 153.6 47.261538 153.6 106.338462 0 74.830769-72.861538 102.4-76.8 145.723077-3.938462 47.261538 47.261538 51.2 47.261538 51.2 64.984615 1.969231 129.969231 7.876923 192.984616 15.753846 15.753846 1.969231 33.476923 17.723077 35.446153 35.446154 9.846154 61.046154 15.753846 118.153846 19.692308 179.2 0 17.723077-13.784615 35.446154-31.507692 35.446154h-17.723077c-17.723077 0-45.292308-13.784615-57.107692-27.569231 0 0-41.353846-43.323077-86.646154-45.292308-72.861538-1.969231-128 61.046154-128 129.969231s55.138462 133.907692 126.030769 131.938462c43.323077-1.969231 86.646154-45.292308 86.646154-45.292308 13.784615-11.815385 39.384615-23.630769 57.107692-23.630769h17.723077c21.661538 0 35.446154 11.815385 33.476923 27.56923z" p-id="1894"></path></svg>
