<svg t="1577872926224" class="icon" viewBox="0 0 1024 1024" version="1.1" xmlns="http://www.w3.org/2000/svg" p-id="9840" width="200" height="200"><path d="M511.875 76l-83.25 4.25c-46.303 2.022-54.584 71.612-97.25 88.5-54.033 44.18-123.971 71.94-194.375 67.75-48.409 291.359 87.644 659.935 399.5 735.5 283.567-107.945 397.101-451.601 349-732.125-112.254 5.873-215.174-66.217-273.25-158.25l-83.125-5.375-17.25-0.25zM695.625 371.25c6.021 0 12.011 2.386 16.625 7l16.625 16.625c9.227 9.227 9.227 24.023 0 33.25l-241.625 241.625c-9.227 9.227-24.023 9.227-33.25 0l-16.75-16.625-142.5-142.5c-9.227-9.227-9.227-24.148 0-33.375l16.625-16.625c9.227-9.227 24.148-9.227 33.375 0l125.875 125.875 208.25-208.25c4.614-4.614 10.729-7 16.75-7z" p-id="9841"></path></svg>
