<svg t="1577699277779" class="icon" viewBox="0 0 1024 1024" version="1.1" xmlns="http://www.w3.org/2000/svg" p-id="34054" width="200" height="200"><path d="M440.905143 853.445486c-110.866286 0-215.094857-43.132343-293.474743-121.508572-78.379886-78.379886-121.508571-182.612114-121.508571-293.474743s43.132343-215.094857 121.508571-293.474742C225.810286 66.603886 330.038857 23.471543 440.905143 23.471543s215.098514 43.132343 293.474743 121.508571c78.379886 78.379886 121.508571 182.612114 121.508571 293.474743s-43.132343 215.098514-121.508571 293.474743-182.608457 121.515886-293.474743 121.515886z m0-747.029943c-88.747886 0-172.105143 34.56-234.869029 97.316571C143.286857 266.492343 108.726857 349.845943 108.726857 438.593829c0 88.7552 34.56 172.1088 97.312914 234.865371C268.8 736.219429 352.160914 770.779429 440.905143 770.779429c88.747886 0 172.1088-34.56 234.861714-97.320229 62.760229-62.760229 97.320229-146.113829 97.320229-234.865371 0-88.747886-34.56-172.097829-97.320229-234.861715-62.752914-62.891886-146.113829-97.316571-234.861714-97.316571z m0 0" p-id="34055"></path><path d="M960.259657 999.281371c-10.642286 0-21.291886-4.011886-29.301028-12.163657l-203.2128-203.209143c-16.171886-16.171886-16.171886-42.433829 0-58.609371 16.175543-16.171886 42.437486-16.171886 58.609371 0l203.2128 203.2128c16.171886 16.171886 16.171886 42.433829 0 58.609371-8.155429 8.016457-18.666057 12.16-29.308343 12.16z m0 0" p-id="34056"></path></svg>
