<svg t="1577687110648" class="icon" viewBox="0 0 1024 1024" version="1.1" xmlns="http://www.w3.org/2000/svg" p-id="3678" width="200" height="200"><path d="M955.008 133.856a64 64 0 0 0-56.736-56.704L551.456 39.584a64.096 64.096 0 0 0-52.16 18.368L64.288 492.992a64 64 0 0 0 0 90.496L448.96 968.16a64 64 0 0 0 90.496 0l435.008-435.008a64 64 0 0 0 18.368-52.192L955.008 133.856z m-460.8 789.056L109.536 538.24 544.544 103.232l346.848 37.536 37.824 347.136-435.008 435.008z" p-id="3679"></path><path d="M709.856 200.48a112 112 0 1 0 0 224 112 112 0 0 0 0-224z m0 160a48 48 0 1 1 0.032-96.032 48 48 0 0 1-0.032 96.032z" p-id="3680"></path></svg>
