<svg t="1577853441436" class="icon" viewBox="0 0 1024 1024" version="1.1" xmlns="http://www.w3.org/2000/svg" p-id="10059" width="200" height="200"><path d="M896 490.666667v128c0 164.949333-133.717333 298.666667-298.666667 298.666666h-8.554666a64 64 0 1 1 0-64H597.333333c100.053333 0 185.450667-62.592 219.221334-150.762666A96.618667 96.618667 0 0 1 800 704H725.333333a21.333333 21.333333 0 0 1-21.333333-21.333333V426.666667a21.333333 21.333333 0 0 1 21.333333-21.333334h74.666667c7.253333 0 14.336 0.810667 21.12 2.346667C784.597333 271.146667 660.053333 170.666667 512 170.666667S239.424 271.168 202.88 407.68c6.784-1.536 13.866667-2.346667 21.12-2.346667H298.666667a21.333333 21.333333 0 0 1 21.333333 21.333334v256a21.333333 21.333333 0 0 1-21.333333 21.333333h-74.666667a96 96 0 0 1-95.424-85.333333L128 597.546667V490.666667c0-212.074667 171.925333-384 384-384s384 171.925333 384 384z m-128-21.333334v170.666667h32a32 32 0 0 0 32-32v-106.666667a32 32 0 0 0-32-32H768z m-544 170.666667H256v-170.666667h-32A32 32 0 0 0 192 501.333333v106.666667a32 32 0 0 0 32 32z" p-id="10060"></path></svg>
