<svg t="1577699059452" class="icon" viewBox="0 0 1024 1024" version="1.1" xmlns="http://www.w3.org/2000/svg" p-id="29892" width="200" height="200"><path d="M926.468655 283.452509l-47.616 47.616c-50.753164 50.753164-133.315491 50.753164-184.068655 0s-50.753164-133.315491 0-184.068654c0 0 21.336436-21.271273 47.616-47.616 26.279564-26.279564 8.731927-57.222982-38.614109-49.887419a237.270109 237.270109 0 0 0-131.649164 66.820655c-59.0848 59.0848-80.495709 141.7216-64.558545 217.944436l-399.276218 399.36c-50.753164 50.688-50.753164 133.250327 0 184.003491 50.753164 50.753164 133.315491 50.753164 184.003491 0l399.35069-399.350691c76.222836 15.937164 158.794473-5.473745 217.879273-64.493382a236.925673 236.925673 0 0 0 66.829964-131.649163c7.326255-47.346036-23.617164-64.949527-49.896727-38.679273zM230.949236 856.2688a43.380364 43.380364 0 1 1 0-61.356218 43.268655 43.268655 0 0 1 0 61.356218z"  p-id="29893"></path><path d="M187.5968 291.393164L337.92 441.781527l61.356218-61.356218-150.3232-150.388364-33.680291-64.363054-107.371054-76.688291L46.545455 150.341818l76.6976 107.371055 64.353745 33.680291zM690.715927 610.443636a21.690182 21.690182 0 0 0-30.682763 0l-92.029673 92.038982a21.690182 21.690182 0 0 0 0 30.673455l217.078691 217.078691c33.885091 33.810618 88.901818 33.810618 122.712436 0 33.885091-33.810618 33.885091-88.836655 0-122.712437L690.715927 610.443636z"  p-id="29894"></path></svg>
