<svg t="1577699419125" class="icon" viewBox="0 0 1024 1024" version="1.1" xmlns="http://www.w3.org/2000/svg" p-id="39623" width="200" height="200"><path d="M512 582.4c89.6-51.2 140.8-134.4 140.8-243.2 0-153.6-128-275.2-281.6-275.2S96 185.6 96 339.2c0 102.4 57.6 192 140.8 243.2-134.4 57.6-236.8 192-236.8 345.6 0 19.2 12.8 32 32 32s32-12.8 32-32c0-172.8 134.4-307.2 307.2-307.2s307.2 134.4 307.2 307.2c0 19.2 12.8 32 32 32s32-12.8 32-32c0-153.6-96-288-230.4-345.6zM153.6 339.2c0-115.2 102.4-217.6 217.6-217.6s217.6 102.4 217.6 217.6-96 217.6-217.6 217.6-217.6-96-217.6-217.6z" p-id="39624"></path><path d="M787.2 582.4c89.6-51.2 140.8-134.4 140.8-243.2 0-153.6-121.6-281.6-281.6-281.6-12.8 6.4-25.6 19.2-25.6 38.4s12.8 32 32 32c115.2 0 217.6 102.4 217.6 217.6S768 556.8 652.8 556.8c-19.2 0-32 12.8-32 32s12.8 32 32 32c172.8 0 307.2 134.4 307.2 307.2 0 19.2 12.8 32 32 32s32-12.8 32-32c0-153.6-102.4-288-236.8-345.6z"  p-id="39625"></path></svg>
